# xmcd
# 
# Track frame offsets:
#     150
#     19022
#     37572
# 
# Disc length: 842
# 
# Revision: 1
# Processed by: cddbd v1.5.2PL0 Copyright (c) Steve Scherf et al.
# Submitted via: fre:ac v1.0.31
# 
DISCID=11034803
DTITLE=Lisa Stansfield - Set Your Loving Free
DYEAR=1992
DGENRE=Rhythmic Soul
TTITLE0=Set Your Loving Free
TTITLE1=Whenever You're Gone
TTITLE2=Set Your Loving Free [Kenlou 12'' Mix]
EXTD=
EXTT0=
EXTT1=
EXTT2=
PLAYORDER=
